<?xml version="1.0" encoding="UTF-8"?>
<!DOCTYPE svg PUBLIC "-//W3C//DTD SVG 1.1//EN" "http://www.w3.org/Graphics/SVG/1.1/DTD/svg11.dtd">
<!-- Creator: CorelDRAW 2018 (64 Bit) -->
<svg xmlns="http://www.w3.org/2000/svg" xml:space="preserve" width="279.4mm" height="215.9mm" version="1.1" style="shape-rendering:geometricPrecision; text-rendering:geometricPrecision; image-rendering:optimizeQuality; fill-rule:evenodd; clip-rule:evenodd"
viewBox="0 0 27940 21590"
 xmlns:xlink="http://www.w3.org/1999/xlink">
 <defs>
  <style type="text/css">
   <![CDATA[
    .str12 {stroke:#373435;stroke-width:10.93;stroke-linecap:round;stroke-linejoin:round;stroke-miterlimit:22.9256}
    .str14 {stroke:#373435;stroke-width:10.93;stroke-linecap:round;stroke-linejoin:round;stroke-miterlimit:22.9256}
    .str8 {stroke:#373435;stroke-width:10.93;stroke-linecap:round;stroke-linejoin:round;stroke-miterlimit:22.9256}
    .str9 {stroke:#373435;stroke-width:10.93;stroke-linecap:round;stroke-linejoin:round;stroke-miterlimit:22.9256}
    .str13 {stroke:#373435;stroke-width:10.93;stroke-linecap:round;stroke-linejoin:round;stroke-miterlimit:22.9256}
    .str11 {stroke:#373435;stroke-width:10.93;stroke-linecap:round;stroke-linejoin:round;stroke-miterlimit:22.9256}
    .str15 {stroke:#373435;stroke-width:10.93;stroke-linecap:round;stroke-linejoin:round;stroke-miterlimit:22.9256}
    .str10 {stroke:#373435;stroke-width:10.93;stroke-linecap:round;stroke-linejoin:round;stroke-miterlimit:22.9256}
    .str7 {stroke:#373435;stroke-width:10.93;stroke-linecap:round;stroke-linejoin:round;stroke-miterlimit:22.9256}
    .str6 {stroke:#373435;stroke-width:10.93;stroke-linecap:round;stroke-linejoin:round;stroke-miterlimit:22.9256}
    .str5 {stroke:#373435;stroke-width:11.02;stroke-linecap:round;stroke-linejoin:round;stroke-miterlimit:22.9256}
    .str1 {stroke:#373435;stroke-width:11.02;stroke-linecap:round;stroke-linejoin:round;stroke-miterlimit:22.9256}
    .str3 {stroke:#373435;stroke-width:11.02;stroke-linecap:round;stroke-linejoin:round;stroke-miterlimit:22.9256}
    .str4 {stroke:#373435;stroke-width:11.02;stroke-linecap:round;stroke-linejoin:round;stroke-miterlimit:22.9256}
    .str2 {stroke:#373435;stroke-width:11.02;stroke-linecap:round;stroke-linejoin:round;stroke-miterlimit:22.9256}
    .str0 {stroke:#373435;stroke-width:11.02;stroke-linecap:round;stroke-linejoin:round;stroke-miterlimit:22.9256}
    .fil3 {fill:url(#id0)}
    .fil7 {fill:url(#id1)}
    .fil0 {fill:url(#id2)}
    .fil16 {fill:url(#id3)}
    .fil14 {fill:url(#id4)}
    .fil6 {fill:url(#id5)}
    .fil8 {fill:url(#id6)}
    .fil13 {fill:url(#id7)}
    .fil12 {fill:url(#id8)}
    .fil11 {fill:url(#id9)}
    .fil4 {fill:url(#id10)}
    .fil5 {fill:url(#id11)}
    .fil15 {fill:url(#id12)}
    .fil1 {fill:url(#id13)}
    .fil2 {fill:url(#id14)}
    .fil9 {fill:url(#id15)}
    .fil10 {fill:url(#id16)}
   ]]>
  </style>
  <linearGradient id="id0" gradientUnits="userSpaceOnUse" x1="436.56" y1="14496.1" x2="13039.02" y2="14496.1">
   <stop offset="0" style="stop-opacity:1; stop-color:#0C0A0E"/>
   <stop offset="0.0313725" style="stop-opacity:1; stop-color:#0F0064"/>
   <stop offset="0.0901961" style="stop-opacity:1; stop-color:#3C009A"/>
   <stop offset="0.2" style="stop-opacity:1; stop-color:#C5D1FF"/>
   <stop offset="0.239216" style="stop-opacity:1; stop-color:white"/>
   <stop offset="0.568627" style="stop-opacity:1; stop-color:#4270C1"/>
   <stop offset="0.768627" style="stop-opacity:1; stop-color:#3909A4"/>
   <stop offset="0.941176" style="stop-opacity:1; stop-color:#130064"/>
   <stop offset="0.988235" style="stop-opacity:1; stop-color:#000067"/>
   <stop offset="1" style="stop-opacity:1; stop-color:#0C0A0E"/>
  </linearGradient>
  <linearGradient id="id1" gradientUnits="userSpaceOnUse" xlink:href="#id0" x1="13719.33" y1="10096.63" x2="21326.34" y2="10096.63">
  </linearGradient>
  <linearGradient id="id2" gradientUnits="userSpaceOnUse" xlink:href="#id0" x1="436.56" y1="10689.31" x2="26339.29" y2="10689.31">
  </linearGradient>
  <linearGradient id="id3" gradientUnits="userSpaceOnUse" xlink:href="#id0" x1="5111.16" y1="10689.31" x2="21621.85" y2="10689.31">
  </linearGradient>
  <linearGradient id="id4" gradientUnits="userSpaceOnUse" xlink:href="#id0" x1="13366.51" y1="7150.2" x2="20939.17" y2="7150.2">
  </linearGradient>
  <linearGradient id="id5" gradientUnits="userSpaceOnUse" xlink:href="#id0" x1="4698.08" y1="10689.31" x2="22077.76" y2="10689.31">
  </linearGradient>
  <linearGradient id="id6" gradientUnits="userSpaceOnUse" xlink:href="#id0" x1="20908" y1="10097.27" x2="21326.34" y2="10097.27">
  </linearGradient>
  <linearGradient id="id7" gradientUnits="userSpaceOnUse" xlink:href="#id0" x1="4698.08" y1="8280.43" x2="13387.92" y2="8280.43">
  </linearGradient>
  <linearGradient id="id8" gradientUnits="userSpaceOnUse" xlink:href="#id0" x1="4698.08" y1="13098.2" x2="13387.92" y2="13098.2">
  </linearGradient>
  <linearGradient id="id9" gradientUnits="userSpaceOnUse" xlink:href="#id0" x1="13366.51" y1="13098.2" x2="22077.77" y2="13098.2">
  </linearGradient>
  <linearGradient id="id10" gradientUnits="userSpaceOnUse" xlink:href="#id0" x1="436.56" y1="6884.93" x2="13039.02" y2="6884.93">
  </linearGradient>
  <linearGradient id="id11" gradientUnits="userSpaceOnUse" xlink:href="#id0" x1="1084.13" y1="10694.14" x2="25691.72" y2="10694.14">
  </linearGradient>
  <linearGradient id="id12" gradientUnits="userSpaceOnUse" xlink:href="#id0" x1="13719.33" y1="11643.28" x2="19208.71" y2="11643.28">
  </linearGradient>
  <linearGradient id="id13" gradientUnits="userSpaceOnUse" xlink:href="#id0" x1="13736.86" y1="6884.93" x2="26339.29" y2="6884.93">
  </linearGradient>
  <linearGradient id="id14" gradientUnits="userSpaceOnUse" xlink:href="#id0" x1="13736.86" y1="14496.1" x2="26339.29" y2="14496.1">
  </linearGradient>
  <linearGradient id="id15" gradientUnits="userSpaceOnUse" xlink:href="#id0" x1="20908" y1="10097.95" x2="22008.95" y2="10097.95">
  </linearGradient>
  <linearGradient id="id16" gradientUnits="userSpaceOnUse" xlink:href="#id0" x1="21556.47" y1="10386.05" x2="22077.77" y2="10386.05">
  </linearGradient>
 </defs>
 <g id="Layer_x0020_1">
  <metadata id="CorelCorpID_0Corel-Layer"/>
  <path class="fil0 str0" d="M13755.24 4981.14l0 -1905.41c6964.52,115.08 12584.05,3490.63 12584.05,7613.58 0,4122.94 -5619.4,7498.83 -12584.05,7613.58l0 -1905.47c5180.92,-113.65 9346.23,-2634.08 9346.23,-5708.13 0,-3074.07 -4165.58,-5593.85 -9346.23,-5708.15zm-734.59 11416.28l0 1905.47c-6964.53,-115.05 -12584.09,-3490.62 -12584.09,-7613.58 0,-4122.96 5619.43,-7498.85 12584.09,-7613.58l0 1905.41c-5180.91,113.63 -9346.23,2634.08 -9346.23,5708.15 0,3074.05 4165.59,5593.85 9346.23,5708.13z"/>
  <g id="_2588494612576">
   <polygon class="fil1 str1" points="13736.86,3461.23 13755.24,3075.73 14404.1,3095.99 15044.28,3134.9 15675.02,3191.99 16295.54,3266.81 16905.03,3358.9 17502.75,3467.77 18087.88,3593 18659.65,3734.1 19217.28,3890.64 19759.98,4062.14 20286.98,4248.13 20797.48,4448.18 21290.72,4661.81 21765.91,4888.55 22222.24,5127.96 22658.96,5379.57 23075.27,5642.93 23470.4,5917.56 23843.56,6203.01 24193.97,6498.83 24520.83,6804.54 24823.39,7119.71 25100.84,7443.85 25352.42,7776.51 25577.32,8117.23 25774.78,8465.54 25944.01,8821.01 26084.22,9183.15 26194.64,9551.51 26274.48,9925.64 26322.96,10305.05 26339.29,10689.31 25691.72,10694.13 25676.2,10329.09 25630.14,9968.64 25554.3,9613.23 25449.4,9263.29 25316.21,8919.26 25155.43,8581.56 24967.85,8250.66 24754.18,7926.97 24515.19,7610.95 24251.61,7303.01 23964.19,7003.61 23653.66,6713.18 23320.76,6432.16 22966.28,6160.98 22590.9,5900.08 22195.4,5649.88 21780.51,5410.85 21347,5183.41 20895.57,4968.01 20427,4765.07 19942.03,4575.02 19441.37,4398.32 18925.8,4235.39 18396.06,4086.7 17852.88,3952.65 17297,3833.68 16729.17,3730.24 16150.15,3642.76 15560.65,3571.68 14961.45,3517.46 14353.28,3480.48 "/>
   <polygon class="fil2 str2" points="25691.72,10694.13 26339.29,10689.31 26322.96,11073.58 26274.48,11452.99 26194.64,11827.11 26084.24,12195.48 25944.01,12557.63 25774.79,12913.1 25577.33,13261.43 25352.43,13602.16 25100.87,13934.83 24823.42,14258.98 24520.86,14574.14 24193.99,14879.88 23843.6,15175.7 23470.45,15461.17 23075.33,15735.82 22659.01,15999.17 22222.3,16250.79 21765.95,16490.2 21290.78,16716.95 20797.54,16930.58 20287.04,17130.63 19760.04,17316.62 19217.34,17488.12 18659.71,17644.64 18087.94,17785.75 17502.79,17910.96 16905.08,18019.83 16295.58,18111.9 15675.05,18186.69 15044.29,18243.77 14404.1,18282.65 13755.24,18302.89 13736.86,17927.03 14353.28,17907.81 14961.46,17870.86 15560.68,17816.63 16150.19,17745.59 16729.21,17658.12 17297.05,17554.7 17852.92,17435.74 18396.11,17301.69 18925.85,17153 19441.43,16990.07 19942.08,16813.38 20427.05,16623.33 20895.63,16420.38 21347.04,16204.96 21780.57,15977.53 22195.44,15738.49 22590.95,15488.31 22966.31,15227.38 23320.81,14956.19 23653.69,14675.17 23964.2,14384.71 24251.63,14085.3 24515.22,13777.37 24754.2,13461.33 24967.85,13137.63 25155.45,12806.73 25316.21,12469.03 25449.42,12124.99 25554.3,11775.04 25630.14,11419.62 25676.2,11059.17 "/>
   <polygon class="fil3 str3" points="13039.02,17927.03 13020.65,18302.89 12371.79,18282.63 11731.61,18243.71 11100.87,18186.62 10480.35,18111.82 9870.84,18019.73 9273.13,17910.86 8688,17785.63 8116.23,17644.52 7558.6,17487.99 7015.89,17316.49 6488.89,17130.5 5978.38,16930.45 5485.14,16716.82 5009.97,16490.08 4553.62,16250.67 4116.9,15999.06 3700.59,15735.72 3305.46,15461.08 2932.3,15175.62 2581.9,14879.81 2255.01,14574.09 1952.46,14258.93 1675,13934.78 1423.43,13602.12 1198.53,13261.4 1001.07,12913.09 831.84,12557.62 691.63,12195.48 581.21,11827.11 501.37,11452.99 452.88,11073.58 436.56,10689.31 1084.13,10694.13 1099.65,11059.17 1145.7,11419.62 1221.55,11775.04 1326.44,12124.99 1459.64,12469.02 1620.41,12806.72 1808,13137.6 2021.66,13461.29 2260.65,13777.32 2524.24,14085.26 2811.66,14384.67 3122.2,14675.09 3455.1,14956.12 3809.58,15227.31 4184.96,15488.21 4580.46,15738.38 4995.35,15977.41 5428.88,16204.86 5880.29,16420.27 6348.86,16623.2 6833.85,16813.25 7334.5,16989.94 7850.06,17152.87 8379.81,17301.58 8922.99,17435.63 9478.87,17554.59 10046.7,17658.03 10625.74,17745.5 11215.22,17816.58 11814.43,17870.8 12422.61,17907.78 "/>
   <polygon class="fil4 str4" points="1084.13,10694.13 436.56,10689.31 452.88,10305.05 501.37,9925.62 581.21,9551.5 691.63,9183.13 831.84,8820.98 1001.05,8465.51 1198.51,8117.19 1423.42,7776.45 1674.99,7443.77 1952.44,7119.62 2254.99,6804.46 2581.85,6498.73 2932.26,6202.9 3305.42,5917.43 3700.54,5642.8 4116.85,5379.43 4553.58,5127.81 5009.91,4888.4 5485.08,4661.65 5978.32,4448.02 6488.83,4247.98 7015.84,4061.98 7558.54,3890.5 8116.17,3733.96 8687.95,3592.85 9273.08,3467.64 9870.8,3358.77 10480.31,3266.71 11100.83,3191.92 11731.58,3134.84 12371.79,3095.96 13020.65,3075.73 13039.02,3461.23 12422.61,3480.45 11814.41,3517.4 11215.2,3571.61 10625.7,3642.67 10046.67,3730.13 9478.83,3833.55 8922.95,3952.5 8379.77,4086.55 7850.02,4235.26 7334.44,4398.18 6833.79,4574.87 6348.81,4764.91 5880.23,4967.87 5428.82,5183.28 4995.3,5410.72 4580.42,5649.75 4184.91,5899.95 3809.55,6160.85 3455.05,6432.04 3122.16,6713.1 2811.65,7003.52 2524.23,7302.94 2260.64,7610.88 2021.65,7926.93 1808,8250.61 1620.4,8581.53 1459.64,8919.23 1326.44,9263.27 1221.55,9613.22 1145.7,9968.63 1099.65,10329.09 "/>
   <path class="fil5 str5" d="M13736.86 5271.38l0 -1810.15 616.42 19.25 608.17 36.98 599.2 54.22 589.5 71.08 579.02 87.48 567.83 103.44 555.88 118.97 543.18 134.05 529.74 148.69 515.57 162.93 500.66 176.7 484.97 190.05 468.57 202.94 451.43 215.4 433.51 227.44 414.89 239.03 395.5 250.2 375.38 260.9 354.48 271.18 332.9 281.02 310.53 290.43 287.42 299.4 263.58 307.94 238.99 316.02 213.67 323.69 187.58 330.9 160.78 337.7 133.19 344.03 104.9 349.94 75.84 355.41 46.06 360.45 15.52 365.04 -15.52 365.04 -46.06 360.45 -75.84 355.42 -104.88 349.95 -133.21 344.04 -160.76 337.7 -187.6 330.9 -213.65 323.7 -238.98 316.04 -263.59 307.93 -287.43 299.41 -310.51 290.46 -332.88 281.02 -354.5 271.19 -375.36 260.93 -395.51 250.18 -414.87 239.04 -433.53 227.43 -451.41 215.42 -468.58 202.95 -484.97 190.05 -500.65 176.69 -515.58 162.93 -529.74 148.69 -543.19 134.05 -555.87 118.96 -567.84 103.42 -579.02 87.47 -589.51 71.04 -599.22 54.23 -608.18 36.95 -616.42 19.22 0 -1810.21 458.51 -16.75 452.3 -29.85 445.57 -42.59 438.26 -55.03 430.42 -67.13 422.01 -78.91 413.1 -90.38 403.59 -101.53 393.55 -112.33 382.97 -122.84 371.85 -133.01 360.16 -142.85 347.93 -152.39 335.16 -161.6 321.82 -170.49 307.98 -179.03 293.53 -187.28 278.57 -195.2 263.07 -202.8 247 -210.05 230.37 -217.01 213.23 -223.65 195.52 -229.95 177.26 -235.93 158.48 -241.59 139.09 -246.93 119.21 -251.94 98.77 -256.65 77.78 -261 56.23 -265.06 34.14 -268.79 11.49 -272.18 -11.49 -272.16 -34.16 -268.79 -56.22 -265.05 -77.78 -261 -98.76 -256.62 -119.24 -251.94 -139.11 -246.92 -158.46 -241.58 -177.27 -235.9 -195.53 -229.93 -213.23 -223.62 -230.4 -216.99 -247 -210.06 -263.06 -202.78 -278.59 -195.16 -293.54 -187.27 -307.97 -179.03 -321.85 -170.47 -335.15 -161.58 -347.94 -152.39 -360.17 -142.85 -371.82 -133.01 -382.97 -122.85 -393.56 -112.34 -403.6 -101.53 -413.08 -90.39 -422.01 -78.95 -430.39 -67.16 -438.25 -55.05 -445.54 -42.64 -452.28 -29.89 -458.5 -16.82zm-697.84 10845.44l0 1810.21 -616.41 -19.25 -608.18 -36.98 -599.21 -54.22 -589.48 -71.08 -579.04 -87.47 -567.83 -103.44 -555.88 -118.96 -543.18 -134.05 -529.75 -148.71 -515.56 -162.93 -500.65 -176.69 -484.99 -190.05 -468.57 -202.93 -451.41 -215.41 -433.53 -227.45 -414.89 -239.03 -395.5 -250.17 -375.38 -260.9 -354.48 -271.19 -332.9 -281.03 -310.54 -290.42 -287.42 -299.41 -263.59 -307.94 -238.99 -316.03 -213.66 -323.69 -187.59 -330.88 -160.77 -337.7 -133.2 -344.03 -104.89 -349.95 -75.85 -355.42 -46.05 -360.45 -15.52 -365.04 15.52 -365.04 46.05 -360.46 75.85 -355.41 104.89 -349.95 133.2 -344.04 160.76 -337.7 187.6 -330.92 213.65 -323.68 238.99 -316.05 263.59 -307.94 287.42 -299.42 310.51 -290.42 332.89 -281.06 354.5 -271.19 375.36 -260.9 395.51 -250.2 414.88 -239.03 433.52 -227.44 451.41 -215.41 468.58 -202.96 484.98 -190.04 500.65 -176.69 515.58 -162.92 529.75 -148.71 543.18 -134.05 555.88 -118.95 567.84 -103.42 579.03 -87.46 589.5 -71.06 599.21 -54.21 608.2 -36.95 616.41 -19.22 0 1810.15 -458.5 16.76 -452.31 29.84 -445.56 42.59 -438.26 55.02 -430.4 67.14 -422.03 78.91 -413.08 90.38 -403.6 101.53 -393.56 112.33 -382.97 122.84 -371.84 133.01 -360.15 142.86 -347.95 152.38 -335.16 161.6 -321.83 170.49 -307.97 179.03 -293.53 187.27 -278.57 195.22 -263.07 202.78 -247 210.07 -230.37 217.01 -213.22 223.64 -195.53 229.94 -177.28 235.95 -158.44 241.58 -139.13 246.94 -119.21 251.95 -98.75 256.63 -77.77 261.01 -56.24 265.07 -34.14 268.77 -11.49 272.18 11.49 272.18 34.16 268.79 56.22 265.05 77.78 261 98.76 256.61 119.22 251.94 139.13 246.92 158.46 241.57 177.27 235.91 195.52 229.93 213.24 223.62 230.4 217 247.01 210.05 263.05 202.77 278.59 195.17 293.54 187.28 307.97 179.02 321.85 170.48 335.17 161.58 347.92 152.37 360.17 142.86 371.84 133.01 382.97 122.84 393.56 112.34 403.58 101.53 413.06 90.41 422.02 78.94 430.4 67.17 438.26 55.05 445.53 42.63 452.28 29.89 458.49 16.81z"/>
  </g>
  <path class="fil6 str6" d="M13759.33 10081.43l7567.01 0 0 1.35 682.61 0c45.42,198.72 68.82,401.14 68.82,606.53 0,2653.54 -3903.65,4817.77 -8689.85,4817.77 -4786.19,0 -8689.84,-2164.23 -8689.84,-4817.77 0,-2653.52 3903.65,-4817.76 8689.84,-4817.76 3227.07,0 6052.64,984.15 7551.26,2438.31l-3247.52 0c-1102.41,-612.84 -2625.53,-993.02 -4303.73,-993.02 -3350.35,0 -6082.9,1514.98 -6082.9,3372.45 0,1857.5 2732.55,3372.46 6082.9,3372.46 2737.01,0 5061.35,-1010.7 5820.78,-2394.01l-5449.38 0 0 -1586.31z"/>
  <g id="_2588494608160">
   <polygon class="fil7 str7" points="13719.33,10111.83 13759.33,10081.43 21326.34,10081.43 20908,10111.83 "/>
   <polygon class="fil8 str8" points="20908,10111.83 21326.34,10081.43 21326.34,10082.78 20908,10113.11 "/>
   <polygon class="fil9 str9" points="20908,10113.11 21326.34,10082.78 22008.95,10082.78 21556.47,10113.11 "/>
   <polygon class="fil10 str10" points="21556.47,10113.11 22008.95,10082.78 22013.13,10101.42 22017.21,10120.08 22021.14,10138.76 22024.94,10157.47 22028.61,10176.19 22032.16,10194.95 22035.57,10213.71 22038.86,10232.51 22042.02,10251.32 22045.03,10270.14 22047.93,10288.99 22050.68,10307.87 22053.31,10326.75 22055.8,10345.66 22058.16,10364.6 22060.39,10383.55 22062.49,10402.52 22064.44,10421.5 22066.28,10440.51 22067.97,10459.55 22069.53,10478.59 22070.95,10497.65 22072.24,10516.73 22073.41,10535.84 22074.42,10554.96 22075.31,10574.09 22076.06,10593.26 22076.68,10612.43 22077.15,10631.63 22077.5,10650.84 22077.7,10670.06 22077.77,10689.31 21621.85,10689.31 21621.79,10671.04 21621.59,10652.77 21621.26,10634.52 21620.82,10616.27 21620.23,10598.07 21619.52,10579.86 21618.68,10561.68 21617.72,10543.52 21616.61,10525.37 21615.38,10507.24 21614.03,10489.13 21612.54,10471.04 21610.93,10452.96 21609.19,10434.9 21607.34,10416.87 21605.35,10398.85 21603.23,10380.84 21600.99,10362.85 21598.62,10344.89 21596.12,10326.95 21593.5,10309.02 21590.74,10291.1 21587.89,10273.22 21584.89,10255.35 21581.76,10237.5 21578.52,10219.67 21575.16,10201.86 21571.66,10184.07 21568.06,10166.29 21564.32,10148.55 21560.46,10130.81 "/>
   <polygon class="fil11 str11" points="21621.85,10689.31 22077.77,10689.31 22066.42,10936.6 22032.76,11180.71 21977.32,11421.34 21900.68,11658.18 21803.38,11890.93 21685.97,12119.28 21549.01,12342.92 21393.04,12561.56 21218.63,12774.85 21026.32,12982.54 20816.67,13184.29 20590.23,13379.79 20347.56,13568.74 20089.2,13750.85 19815.72,13925.8 19527.67,14093.27 19225.58,14252.98 18910.04,14404.6 18581.58,14547.83 18240.75,14682.37 17888.11,14807.91 17524.23,14924.15 17149.63,15030.76 16764.89,15127.46 16370.54,15213.93 15967.16,15289.87 15555.29,15354.96 15135.47,15408.9 14708.27,15451.4 14274.25,15482.13 13833.95,15500.8 13387.92,15507.08 13366.51,15266.18 13790.22,15260.21 14208.51,15242.48 14620.83,15213.28 15026.68,15172.93 15425.49,15121.68 15816.78,15059.83 16199.99,14987.69 16574.62,14905.54 16940.12,14813.68 17296,14712.4 17641.67,14601.97 17976.69,14482.72 18300.47,14354.89 18612.51,14218.84 18912.27,14074.79 19199.27,13923.07 19472.91,13763.96 19732.72,13597.77 19978.16,13424.77 20208.68,13245.26 20423.8,13059.53 20622.98,12867.88 20805.66,12670.56 20971.37,12467.94 21119.53,12260.24 21249.64,12047.78 21361.19,11830.85 21453.62,11609.73 21526.43,11384.73 21579.09,11156.14 21611.07,10924.23 "/>
   <polygon class="fil12 str12" points="13366.51,15266.18 13387.92,15507.08 12941.88,15500.8 12501.59,15482.13 12067.56,15451.4 11640.37,15408.9 11220.56,15354.96 10808.69,15289.87 10405.31,15213.93 10010.96,15127.46 9626.22,15030.76 9251.62,14924.15 8887.72,14807.91 8535.09,14682.37 8194.27,14547.83 7865.8,14404.6 7550.25,14252.98 7248.18,14093.27 6960.12,13925.8 6686.65,13750.85 6428.29,13568.74 6185.62,13379.79 5959.18,13184.29 5749.53,12982.54 5557.22,12774.85 5382.81,12561.56 5226.84,12342.92 5089.88,12119.28 4972.47,11890.93 4875.17,11658.18 4798.53,11421.34 4743.09,11180.71 4709.43,10936.6 4698.08,10689.31 5111.16,10689.31 5121.95,10924.23 5153.92,11156.14 5206.58,11384.73 5279.39,11609.73 5371.83,11830.85 5483.38,12047.78 5613.49,12260.24 5761.65,12467.94 5927.35,12670.56 6110.04,12867.88 6309.21,13059.53 6524.33,13245.26 6754.85,13424.77 7000.3,13597.77 7260.1,13763.96 7533.75,13923.07 7820.72,14074.79 8120.5,14218.84 8432.55,14354.89 8756.32,14482.72 9091.32,14601.97 9437.03,14712.4 9792.9,14813.68 10158.41,14905.54 10533.02,14987.69 10916.25,15059.83 11307.52,15121.68 11706.33,15172.93 12112.17,15213.28 12524.5,15242.48 12942.77,15260.21 "/>
   <polygon class="fil13 str13" points="5111.16,10689.31 4698.08,10689.31 4709.43,10442.03 4743.09,10197.92 4798.53,9957.29 4875.17,9720.45 4972.47,9487.7 5089.88,9259.35 5226.84,9035.71 5382.81,8817.09 5557.22,8603.78 5749.53,8396.1 5959.18,8194.36 6185.62,7998.85 6428.29,7809.89 6686.65,7627.78 6960.12,7452.83 7248.18,7285.36 7550.25,7125.66 7865.8,6974.03 8194.27,6830.8 8535.09,6696.26 8887.72,6570.72 9251.62,6454.5 9626.22,6347.87 10010.96,6251.17 10405.31,6164.7 10808.69,6088.76 11220.56,6023.67 11640.37,5969.73 12067.56,5927.23 12501.59,5896.5 12941.88,5877.83 13387.92,5871.55 13366.51,6112.45 12942.77,6118.42 12524.5,6136.15 12112.17,6165.35 11706.33,6205.7 11307.52,6256.95 10916.25,6318.8 10533.02,6390.94 10158.41,6473.09 9792.9,6564.95 9437.03,6666.24 9091.32,6776.66 8756.32,6895.91 8432.55,7023.74 8120.5,7159.79 7820.72,7303.85 7533.75,7455.56 7260.1,7614.67 7000.3,7780.86 6754.85,7953.86 6524.33,8133.38 6309.21,8319.12 6110.04,8510.77 5927.35,8708.07 5761.65,8910.7 5613.49,9118.39 5483.38,9330.85 5371.83,9547.78 5279.39,9768.9 5206.58,9993.9 5153.92,10222.49 5121.95,10454.4 "/>
   <polygon class="fil14 str14" points="13366.51,6112.45 13387.92,5871.55 13689.25,5874.42 13988.07,5882.95 14284.19,5897.07 14577.44,5916.67 14867.67,5941.66 15154.69,5971.96 15438.36,6007.44 15718.47,6048.05 15994.9,6093.65 16267.43,6144.18 16535.91,6199.54 16800.18,6259.62 17060.08,6324.34 17315.4,6393.61 17566.01,6467.32 17811.72,6545.4 18052.36,6627.72 18287.78,6714.22 18517.79,6804.78 18742.23,6899.32 18960.92,6997.76 19173.71,7099.97 19380.42,7205.89 19580.87,7315.4 19774.9,7428.43 19962.35,7544.85 20143.05,7664.61 20316.8,7787.59 20483.46,7913.7 20642.87,8042.84 20794.82,8174.93 20939.18,8309.86 20540.19,8428.84 20403.04,8300.65 20258.7,8175.17 20107.26,8052.49 19948.93,7932.68 19783.87,7815.85 19612.21,7702.08 19434.13,7591.48 19249.8,7484.11 19059.37,7380.06 18862.99,7279.45 18660.86,7182.35 18453.1,7088.83 18239.87,6999.01 18021.37,6912.98 17797.71,6830.8 17569.11,6752.6 17335.68,6678.42 17097.59,6608.4 16855.04,6542.6 16608.15,6481.11 16357.09,6424.04 16102.04,6371.44 15843.12,6323.45 15580.53,6280.12 15314.42,6241.54 15044.94,6207.84 14772.26,6179.05 14496.54,6155.3 14217.95,6136.7 13936.63,6123.28 13652.76,6115.18 "/>
   <polygon class="fil15 str15" points="18896.25,11618.81 19208.71,11667.74 13759.33,11667.74 13719.33,11618.81 "/>
   <polygon class="fil16 str7" points="13719.33,10111.83 20908,10111.83 20908,10113.11 21556.47,10113.11 21560.46,10130.81 21564.32,10148.55 21568.06,10166.29 21571.66,10184.07 21575.16,10201.86 21578.52,10219.67 21581.76,10237.5 21584.89,10255.35 21587.89,10273.22 21590.74,10291.1 21593.5,10309.02 21596.12,10326.95 21598.62,10344.89 21600.99,10362.85 21603.23,10380.84 21605.35,10398.85 21607.34,10416.87 21609.19,10434.9 21610.93,10452.96 21612.54,10471.04 21614.03,10489.13 21615.38,10507.24 21616.61,10525.37 21617.72,10543.52 21618.68,10561.68 21619.52,10579.86 21620.23,10598.07 21620.82,10616.27 21621.26,10634.52 21621.59,10652.77 21621.79,10671.04 21621.85,10689.31 21611.07,10924.23 21579.09,11156.14 21526.43,11384.73 21453.62,11609.73 21361.19,11830.85 21249.64,12047.78 21119.53,12260.24 20971.37,12467.94 20805.66,12670.56 20622.98,12867.88 20423.8,13059.53 20208.68,13245.26 19978.16,13424.77 19732.72,13597.77 19472.91,13763.96 19199.27,13923.07 18912.27,14074.79 18612.51,14218.84 18300.47,14354.89 17976.69,14482.72 17641.67,14601.97 17296,14712.4 16940.12,14813.68 16574.62,14905.54 16199.99,14987.69 15816.78,15059.83 15425.49,15121.68 15026.68,15172.93 14620.83,15213.28 14208.51,15242.48 13790.22,15260.21 13366.51,15266.18 12942.77,15260.21 12524.5,15242.48 12112.17,15213.28 11706.33,15172.93 11307.52,15121.68 10916.25,15059.83 10533.02,14987.69 10158.41,14905.54 9792.9,14813.68 9437.03,14712.4 9091.32,14601.97 8756.32,14482.72 8432.55,14354.89 8120.5,14218.84 7820.72,14074.79 7533.75,13923.07 7260.1,13763.96 7000.3,13597.77 6754.85,13424.77 6524.33,13245.26 6309.21,13059.53 6110.04,12867.88 5927.35,12670.56 5761.65,12467.94 5613.49,12260.24 5483.38,12047.78 5371.83,11830.85 5279.39,11609.73 5206.58,11384.73 5153.92,11156.14 5121.95,10924.23 5111.16,10689.31 5121.95,10454.4 5153.92,10222.49 5206.58,9993.9 5279.39,9768.9 5371.83,9547.78 5483.38,9330.85 5613.49,9118.39 5761.65,8910.7 5927.35,8708.07 6110.04,8510.77 6309.21,8319.12 6524.33,8133.38 6754.85,7953.86 7000.3,7780.86 7260.1,7614.67 7533.75,7455.56 7820.72,7303.85 8120.5,7159.79 8432.55,7023.74 8756.32,6895.91 9091.32,6776.66 9437.03,6666.24 9792.9,6564.95 10158.41,6473.09 10533.02,6390.94 10916.25,6318.8 11307.52,6256.95 11706.33,6205.7 12112.17,6165.35 12524.5,6136.15 12942.77,6118.42 13366.51,6112.45 13652.76,6115.18 13936.63,6123.28 14217.95,6136.7 14496.54,6155.3 14772.26,6179.05 15044.94,6207.84 15314.42,6241.54 15580.53,6280.12 15843.12,6323.45 16102.04,6371.44 16357.09,6424.04 16608.15,6481.11 16855.04,6542.6 17097.59,6608.4 17335.68,6678.42 17569.11,6752.6 17797.71,6830.8 18021.37,6912.98 18239.87,6999.01 18453.1,7088.83 18660.86,7182.35 18862.99,7279.45 19059.37,7380.06 19249.8,7484.11 19434.13,7591.48 19612.21,7702.08 19783.87,7815.85 19948.93,7932.68 20107.26,8052.49 20258.7,8175.17 20403.04,8300.65 20540.19,8428.84 17455.05,8428.84 17355.71,8374.91 17254.06,8322.3 17150.18,8271.04 17044.08,8221.16 16935.83,8172.66 16825.46,8125.58 16713.04,8079.97 16598.59,8035.82 16482.16,7993.17 16363.82,7952.06 16243.6,7912.5 16121.54,7874.5 15997.7,7838.12 15872.12,7803.36 15744.83,7770.26 15615.91,7738.83 15485.38,7709.11 15353.29,7681.12 15219.69,7654.9 15084.62,7630.45 14948.15,7607.81 14810.29,7587.01 14671.11,7568.07 14530.66,7550.99 14388.97,7535.84 14246.1,7522.63 14102.07,7511.4 13956.98,7502.13 13810.81,7494.87 13663.65,7489.66 13515.53,7486.52 13366.53,7485.47 13069.92,7489.65 12777.11,7502.07 12488.49,7522.5 12204.39,7550.75 11925.21,7586.63 11651.33,7629.92 11383.07,7680.42 11120.83,7737.92 10864.98,7802.22 10615.86,7873.13 10373.89,7950.41 10139.37,8033.91 9912.73,8123.38 9694.3,8218.63 9484.47,8319.45 9283.59,8425.66 9092.02,8537.04 8910.16,8653.36 8738.36,8774.46 8576.98,8900.13 8426.39,9030.14 8286.99,9164.3 8159.1,9302.4 8043.11,9444.27 7939.4,9589.66 7848.31,9738.37 7770.23,9890.22 7705.53,10044.99 7654.55,10202.49 7617.7,10362.52 7595.3,10524.86 7587.77,10689.3 7595.3,10853.72 7617.7,11016.07 7654.55,11176.09 7705.53,11333.58 7770.23,11488.37 7848.31,11640.22 7939.4,11788.96 8043.11,11934.33 8159.1,12076.18 8286.99,12214.29 8426.39,12348.46 8576.98,12478.47 8738.36,12604.12 8910.16,12725.23 9092.02,12841.57 9283.59,12952.93 9484.47,13059.14 9694.3,13159.97 9912.73,13255.23 10139.37,13344.69 10373.89,13428.17 10615.86,13505.47 10864.98,13576.36 11120.83,13640.68 11383.07,13698.18 11651.33,13748.67 11925.21,13791.97 12204.39,13827.84 12488.49,13856.09 12777.11,13876.53 13069.92,13888.94 13366.53,13893.12 13609.09,13890.33 13849.17,13882.01 14086.56,13868.29 14321.05,13849.3 14552.44,13825.11 14780.54,13795.84 15005.13,13761.64 15226.01,13722.56 15443.01,13678.76 15655.89,13630.32 15864.48,13577.38 16068.57,13520.02 16267.96,13458.36 16462.44,13392.53 16651.82,13322.64 16835.89,13248.76 17014.45,13171.04 17187.32,13089.6 17354.29,13004.52 17515.15,12915.91 17669.69,12823.92 17817.74,12728.61 17959.07,12630.13 18093.51,12528.57 18220.83,12424.05 18340.85,12316.7 18453.36,12206.57 18558.15,12093.83 18655.05,11978.58 18743.81,11860.92 18824.28,11740.96 18896.25,11618.81 13719.33,11618.81 "/>
  </g>
 </g>
</svg>
