<?xml version="1.0" encoding="UTF-8"?>
<!DOCTYPE svg PUBLIC "-//W3C//DTD SVG 1.1//EN" "http://www.w3.org/Graphics/SVG/1.1/DTD/svg11.dtd">
<!-- Creator: CorelDRAW 2018 (64 Bit) -->
<svg xmlns="http://www.w3.org/2000/svg" xml:space="preserve" width="279.4mm" height="215.9mm" version="1.1" style="shape-rendering:geometricPrecision; text-rendering:geometricPrecision; image-rendering:optimizeQuality; fill-rule:evenodd; clip-rule:evenodd"
viewBox="0 0 27940 21590"
 xmlns:xlink="http://www.w3.org/1999/xlink">
 <defs>
  <style type="text/css">
   <![CDATA[
    .str1 {stroke:#373435;stroke-width:7.56;stroke-linecap:round;stroke-linejoin:round;stroke-miterlimit:22.9256}
    .str10 {stroke:#373435;stroke-width:7.56;stroke-linecap:round;stroke-linejoin:round;stroke-miterlimit:22.9256}
    .str2 {stroke:#373435;stroke-width:7.56;stroke-linecap:round;stroke-linejoin:round;stroke-miterlimit:22.9256}
    .str4 {stroke:#373435;stroke-width:7.56;stroke-linecap:round;stroke-linejoin:round;stroke-miterlimit:22.9256}
    .str3 {stroke:#373435;stroke-width:7.56;stroke-linecap:round;stroke-linejoin:round;stroke-miterlimit:22.9256}
    .str6 {stroke:#373435;stroke-width:7.56;stroke-linecap:round;stroke-linejoin:round;stroke-miterlimit:22.9256}
    .str7 {stroke:#373435;stroke-width:7.56;stroke-linecap:round;stroke-linejoin:round;stroke-miterlimit:22.9256}
    .str9 {stroke:#373435;stroke-width:7.56;stroke-linecap:round;stroke-linejoin:round;stroke-miterlimit:22.9256}
    .str8 {stroke:#373435;stroke-width:7.56;stroke-linecap:round;stroke-linejoin:round;stroke-miterlimit:22.9256}
    .str5 {stroke:#373435;stroke-width:7.56;stroke-linecap:round;stroke-linejoin:round;stroke-miterlimit:22.9256}
    .str0 {stroke:#373435;stroke-width:7.62;stroke-linecap:round;stroke-linejoin:round;stroke-miterlimit:22.9256}
    .fil2 {fill:url(#id0)}
    .fil0 {fill:url(#id1)}
    .fil1 {fill:url(#id2)}
    .fil6 {fill:url(#id3)}
    .fil11 {fill:url(#id4)}
    .fil5 {fill:url(#id5)}
    .fil4 {fill:url(#id6)}
    .fil3 {fill:url(#id7)}
    .fil12 {fill:url(#id8)}
    .fil10 {fill:url(#id9)}
    .fil7 {fill:url(#id10)}
    .fil8 {fill:url(#id11)}
    .fil9 {fill:url(#id12)}
   ]]>
  </style>
  <linearGradient id="id0" gradientUnits="userSpaceOnUse" x1="7960.66" y1="10795" x2="19979.34" y2="10795">
   <stop offset="0" style="stop-opacity:1; stop-color:#0C0A0E"/>
   <stop offset="0.0313725" style="stop-opacity:1; stop-color:#0F0064"/>
   <stop offset="0.0901961" style="stop-opacity:1; stop-color:#3C009A"/>
   <stop offset="0.2" style="stop-opacity:1; stop-color:#C5D1FF"/>
   <stop offset="0.239216" style="stop-opacity:1; stop-color:white"/>
   <stop offset="0.568627" style="stop-opacity:1; stop-color:#4270C1"/>
   <stop offset="0.768627" style="stop-opacity:1; stop-color:#3909A4"/>
   <stop offset="0.941176" style="stop-opacity:1; stop-color:#130064"/>
   <stop offset="0.988235" style="stop-opacity:1; stop-color:#000067"/>
   <stop offset="1" style="stop-opacity:1; stop-color:#0C0A0E"/>
  </linearGradient>
  <linearGradient id="id1" gradientUnits="objectBoundingBox" xlink:href="#id0" x1="0%" y1="50%" x2="100%" y2="50%">
  </linearGradient>
  <linearGradient id="id2" gradientUnits="objectBoundingBox" xlink:href="#id0" x1="2.67159e-14%" y1="50%" x2="100%" y2="50%">
  </linearGradient>
  <linearGradient id="id3" gradientUnits="userSpaceOnUse" xlink:href="#id0" x1="19618.85" y1="10585.28" x2="19979.34" y2="10585.28">
  </linearGradient>
  <linearGradient id="id4" gradientUnits="userSpaceOnUse" xlink:href="#id0" x1="14199.18" y1="11454.7" x2="17995.29" y2="11454.7">
  </linearGradient>
  <linearGradient id="id5" gradientUnits="userSpaceOnUse" xlink:href="#id0" x1="19170.41" y1="10386.05" x2="19931.75" y2="10386.05">
  </linearGradient>
  <linearGradient id="id6" gradientUnits="userSpaceOnUse" xlink:href="#id0" x1="19170.41" y1="10385.58" x2="19459.71" y2="10385.58">
  </linearGradient>
  <linearGradient id="id7" gradientUnits="userSpaceOnUse" xlink:href="#id0" x1="14199.18" y1="10385.14" x2="19459.7" y2="10385.14">
  </linearGradient>
  <linearGradient id="id8" gradientUnits="userSpaceOnUse" xlink:href="#id0" x1="8246.32" y1="10795" x2="19664.06" y2="10795">
  </linearGradient>
  <linearGradient id="id9" gradientUnits="userSpaceOnUse" xlink:href="#id0" x1="13955.19" y1="8347.57" x2="19191.96" y2="8347.57">
  </linearGradient>
  <linearGradient id="id10" gradientUnits="userSpaceOnUse" xlink:href="#id0" x1="13955.19" y1="12460.83" x2="19979.34" y2="12460.83">
  </linearGradient>
  <linearGradient id="id11" gradientUnits="userSpaceOnUse" xlink:href="#id0" x1="7960.66" y1="12460.83" x2="13970" y2="12460.83">
  </linearGradient>
  <linearGradient id="id12" gradientUnits="userSpaceOnUse" xlink:href="#id0" x1="7960.66" y1="9129.17" x2="13970" y2="9129.17">
  </linearGradient>
 </defs>
 <g id="Layer_x0020_1">
  <metadata id="CorelCorpID_0Corel-Layer"/>
  <path class="fil0 str0" d="M14224.01 6847.59l0 -1317.66c4816.22,79.58 8702.33,2413.9 8702.33,5265.07 0,2851.16 -3886.02,5185.71 -8702.33,5265.06l0 -1317.7c3582.8,-78.59 6463.26,-1821.56 6463.26,-3947.38 0,-2125.83 -2880.65,-3868.35 -6463.26,-3947.39zm-507.99 7894.77l0 1317.7c-4816.23,-79.56 -8702.36,-2413.89 -8702.36,-5265.06 0,-2851.18 3886.04,-5185.73 8702.36,-5265.07l0 1317.66c-3582.79,78.58 -6463.26,1821.56 -6463.26,3947.39 0,2125.82 2880.66,3868.35 6463.26,3947.38z"/>
  <g id="_2588340352992">
   <polygon class="fil0 str0" points="14211.3,5796.52 14224.01,5529.93 14672.72,5543.94 15115.43,5570.85 15551.61,5610.33 15980.72,5662.07 16402.21,5725.75 16815.55,5801.04 17220.19,5887.64 17615.59,5985.22 18001.21,6093.47 18376.51,6212.07 18740.95,6340.69 19093.98,6479.03 19435.07,6626.76 19763.68,6783.56 20079.25,6949.12 20381.26,7123.12 20669.15,7305.24 20942.4,7495.16 21200.45,7692.56 21442.77,7897.13 21668.81,8108.54 21878.04,8326.49 22069.91,8550.64 22243.88,8780.69 22399.41,9016.31 22535.96,9257.18 22652.99,9503 22749.95,9753.43 22826.31,10008.17 22881.52,10266.89 22915.05,10529.27 22926.34,10795 22478.52,10798.33 22467.79,10545.89 22435.94,10296.63 22383.49,10050.85 22310.95,9808.85 22218.84,9570.94 22107.66,9337.41 21977.94,9108.58 21830.18,8884.74 21664.91,8666.2 21482.63,8453.25 21283.87,8246.2 21069.13,8045.36 20838.92,7851.02 20593.78,7663.49 20334.19,7483.07 20060.69,7310.05 19773.78,7144.75 19473.99,6987.47 19161.81,6838.51 18837.78,6698.17 18502.4,6566.74 18156.18,6444.55 17799.64,6331.88 17433.31,6229.05 17057.68,6136.35 16673.27,6054.08 16280.59,5982.55 15880.18,5922.05 15472.52,5872.9 15058.15,5835.4 14637.58,5809.83 "/>
   <polygon class="fil0 str0" points="22478.52,10798.33 22926.34,10795 22915.05,11060.73 22881.52,11323.11 22826.31,11581.83 22749.96,11836.57 22652.99,12087.01 22535.97,12332.83 22399.42,12573.71 22243.89,12809.34 22069.93,13039.39 21878.06,13263.55 21668.83,13481.5 21442.79,13692.93 21200.48,13897.5 20942.43,14094.91 20669.19,14284.84 20381.29,14466.96 20079.29,14640.96 19763.71,14806.52 19435.11,14963.33 19094.02,15111.06 18740.99,15249.4 18376.55,15378.02 18001.25,15496.62 17615.63,15604.86 17220.23,15702.44 16815.58,15789.03 16402.24,15864.32 15980.75,15927.99 15551.63,15979.71 15115.44,16019.18 14672.72,16046.07 14224.01,16060.06 14211.3,15800.14 14637.58,15786.85 15058.16,15761.3 15472.54,15723.8 15880.21,15674.67 16280.62,15614.18 16673.3,15542.66 17057.71,15460.4 17433.34,15367.7 17799.68,15264.87 18156.22,15152.2 18502.44,15030.01 18837.81,14898.59 19161.85,14758.24 19474.02,14609.27 19773.82,14451.99 20060.72,14286.69 20334.23,14113.68 20593.8,13933.24 20838.95,13745.7 21069.15,13551.36 21283.88,13350.5 21482.65,13143.45 21664.93,12930.5 21830.19,12711.95 21977.94,12488.1 22107.67,12259.27 22218.84,12025.74 22310.96,11787.82 22383.49,11545.82 22435.94,11300.03 22467.79,11050.77 "/>
   <polygon class="fil1 str0" points="13728.72,15800.14 13716.02,16060.06 13267.31,16046.05 12824.6,16019.14 12388.42,15979.66 11959.31,15927.93 11537.81,15864.25 11124.47,15788.96 10719.83,15702.36 10324.43,15604.78 9938.81,15496.53 9563.51,15377.93 9199.07,15249.31 8846.03,15110.97 8504.94,14963.24 8176.34,14806.44 7860.76,14640.88 7558.75,14466.88 7270.86,14284.77 6997.61,14094.85 6739.56,13897.44 6497.24,13692.88 6271.19,13481.46 6061.96,13263.52 5870.09,13039.36 5696.12,12809.31 5540.59,12573.69 5404.04,12332.82 5287.01,12087 5190.05,11836.57 5113.69,11581.83 5058.48,11323.11 5024.95,11060.73 5013.66,10795 5461.48,10798.33 5472.21,11050.77 5504.06,11300.03 5556.51,11545.82 5629.05,11787.82 5721.16,12025.73 5832.34,12259.26 5962.06,12488.08 6109.82,12711.92 6275.09,12930.47 6457.37,13143.42 6656.13,13350.47 6870.88,13551.31 7101.09,13745.65 7346.23,13933.19 7605.82,14113.61 7879.32,14286.61 8166.23,14451.91 8466.03,14609.2 8778.2,14758.16 9102.23,14898.5 9437.62,15029.92 9783.84,15152.11 10140.37,15264.78 10506.71,15367.62 10882.34,15460.32 11266.75,15542.59 11659.42,15614.12 12059.85,15674.61 12467.5,15723.76 12881.87,15761.26 13302.45,15786.83 "/>
   <polygon class="fil1 str0" points="5461.48,10798.33 5013.66,10795 5024.95,10529.27 5058.48,10266.88 5113.69,10008.16 5190.05,9753.42 5287.01,9502.98 5404.03,9257.16 5540.58,9016.28 5696.11,8780.65 5870.08,8550.59 6061.95,8326.43 6271.17,8108.48 6497.21,7897.06 6739.53,7692.48 6997.58,7495.07 7270.82,7305.15 7558.72,7123.02 7860.73,6949.02 8176.3,6783.46 8504.9,6626.65 8845.99,6478.92 9199.03,6340.58 9563.47,6211.96 9938.77,6093.37 10324.39,5985.12 10719.8,5887.54 11124.44,5800.95 11537.78,5725.66 11959.28,5662 12388.39,5610.28 12824.58,5570.81 13267.31,5543.92 13716.02,5529.93 13728.72,5796.52 13302.45,5809.81 12881.86,5835.36 12467.48,5872.85 12059.82,5921.99 11659.4,5982.47 11266.72,6053.99 10882.31,6136.25 10506.68,6228.95 10140.34,6331.79 9783.8,6444.45 9437.58,6566.64 9102.2,6698.06 8778.16,6838.41 8465.99,6987.38 8166.2,7144.66 7879.29,7309.96 7605.78,7482.98 7346.21,7663.4 7101.06,7850.94 6870.85,8045.3 6656.12,8246.14 6457.36,8453.2 6275.08,8666.15 6109.81,8884.71 5962.06,9108.55 5832.33,9337.39 5721.16,9570.92 5629.05,9808.84 5556.51,10050.84 5504.06,10296.62 5472.21,10545.89 "/>
   <path class="fil0 str0" d="M14211.3 7048.3l0 -1251.78 426.28 13.31 420.57 25.57 414.37 37.5 407.66 49.15 400.41 60.5 392.68 71.53 384.41 82.27 375.63 92.7 366.33 102.83 356.54 112.67 346.22 122.19 335.38 131.43 324.03 140.34 312.18 148.96 299.79 157.28 286.91 165.3 273.5 173.02 259.59 180.42 245.14 187.53 230.21 194.34 214.74 200.84 198.76 207.05 182.28 212.95 165.27 218.54 147.76 223.84 129.72 228.83 111.18 233.53 92.11 237.91 72.54 242 52.45 245.78 31.85 249.26 10.73 252.44 -10.73 252.44 -31.85 249.26 -52.45 245.79 -72.53 242 -92.12 237.92 -111.17 233.53 -129.73 228.83 -147.75 223.85 -165.26 218.55 -182.28 212.95 -198.77 207.05 -214.73 200.86 -230.2 194.34 -245.15 187.54 -259.57 180.44 -273.51 173.01 -286.9 165.3 -299.8 157.28 -312.17 148.97 -324.04 140.35 -335.37 131.42 -346.22 122.19 -356.54 112.67 -366.34 102.83 -375.63 92.7 -384.41 82.26 -392.68 71.52 -400.41 60.49 -407.67 49.13 -414.38 37.5 -420.58 25.55 -426.28 13.29 0 -1251.82 317.08 -11.59 312.78 -20.64 308.13 -29.45 303.07 -38.06 297.65 -46.42 291.84 -54.57 285.67 -62.5 279.1 -70.21 272.15 -77.68 264.84 -84.95 257.15 -91.98 249.06 -98.79 240.61 -105.38 231.77 -111.75 222.55 -117.9 212.98 -123.81 202.99 -129.51 192.64 -134.99 181.92 -140.24 170.81 -145.26 159.31 -150.07 147.46 -154.66 135.21 -159.02 122.58 -163.15 109.59 -167.07 96.19 -170.76 82.44 -174.23 68.3 -177.48 53.79 -180.49 38.88 -183.3 23.61 -185.88 7.95 -188.22 -7.95 -188.21 -23.62 -185.88 -38.88 -183.29 -53.79 -180.49 -68.29 -177.46 -82.46 -174.23 -96.2 -170.75 -109.58 -167.06 -122.59 -163.14 -135.22 -159 -147.45 -154.64 -159.33 -150.06 -170.81 -145.26 -181.92 -140.23 -192.65 -134.96 -203 -129.51 -212.97 -123.8 -222.57 -117.89 -231.77 -111.74 -240.61 -105.38 -249.07 -98.79 -257.13 -91.98 -264.84 -84.95 -272.16 -77.69 -279.1 -70.21 -285.66 -62.51 -291.84 -54.6 -297.63 -46.44 -303.06 -38.07 -308.11 -29.49 -312.77 -20.67 -317.07 -11.63zm-482.58 7500.02l0 1251.82 -426.27 -13.31 -420.58 -25.57 -414.37 -37.5 -407.65 -49.15 -400.43 -60.49 -392.67 -71.53 -384.41 -82.27 -375.63 -92.7 -366.34 -102.84 -356.53 -112.67 -346.22 -122.19 -335.39 -131.42 -324.03 -140.34 -312.17 -148.96 -299.8 -157.29 -286.91 -165.3 -273.5 -173 -259.59 -180.42 -245.14 -187.54 -230.21 -194.34 -214.75 -200.84 -198.76 -207.05 -182.28 -212.95 -165.27 -218.55 -147.76 -223.84 -129.72 -228.82 -111.18 -233.53 -92.11 -237.91 -72.54 -242 -52.45 -245.79 -31.85 -249.26 -10.73 -252.44 10.73 -252.44 31.85 -249.27 52.45 -245.78 72.54 -242 92.11 -237.92 111.17 -233.53 129.73 -228.84 147.75 -223.84 165.27 -218.56 182.28 -212.95 198.76 -207.06 214.73 -200.84 230.21 -194.36 245.15 -187.54 259.57 -180.42 273.51 -173.02 286.91 -165.3 299.79 -157.28 312.17 -148.97 324.04 -140.35 335.38 -131.42 346.22 -122.19 356.54 -112.66 366.34 -102.84 375.63 -92.7 384.41 -82.26 392.68 -71.52 400.42 -60.48 407.66 -49.14 414.38 -37.49 420.59 -25.55 426.27 -13.29 0 1251.78 -317.07 11.59 -312.79 20.64 -308.12 29.45 -303.07 38.05 -297.64 46.43 -291.85 54.57 -285.66 62.5 -279.1 70.21 -272.16 77.68 -264.84 84.95 -257.14 91.98 -249.06 98.79 -240.62 105.38 -231.77 111.75 -222.56 117.9 -212.97 123.81 -202.99 129.5 -192.64 135 -181.92 140.23 -170.81 145.27 -159.31 150.07 -147.45 154.66 -135.22 159.01 -122.59 163.17 -109.57 167.06 -96.21 170.77 -82.44 174.23 -68.29 177.47 -53.78 180.5 -38.89 183.3 -23.61 185.87 -7.95 188.22 7.95 188.22 23.62 185.88 38.88 183.29 53.79 180.49 68.29 177.46 82.45 174.22 96.21 170.76 109.58 167.05 122.59 163.14 135.21 159.01 147.46 154.64 159.33 150.06 170.82 145.26 181.91 140.22 192.65 134.97 203 129.51 212.97 123.8 222.57 117.89 231.78 111.74 240.6 105.37 249.07 98.79 257.14 91.98 264.84 84.95 272.16 77.69 279.09 70.21 285.65 62.52 291.84 54.59 297.64 46.45 303.07 38.07 308.1 29.48 312.77 20.67 317.06 11.63z"/>
  </g>
  <path class="fil2 str1" d="M14226.84 10374.63l5232.87 0 0 0.93 472.04 0c31.41,137.42 47.59,277.4 47.59,419.44 0,1835.02 -2699.51,3331.66 -6009.34,3331.66 -3309.83,0 -6009.34,-1496.64 -6009.34,-3331.66 0,-1835.01 2699.51,-3331.66 6009.34,-3331.66 2231.63,0 4185.62,680.57 5221.96,1686.18l-2245.77 0c-762.36,-423.8 -1815.65,-686.71 -2976.18,-686.71 -2316.9,0 -4206.55,1047.67 -4206.55,2332.17 0,1284.53 1889.65,2332.18 4206.55,2332.18 1892.74,0 3500.1,-698.94 4025.28,-1655.55l-3768.45 0 0 -1096.98z"/>
  <g id="_2588340350720">
   <polygon class="fil3 str2" points="14199.18,10395.65 14226.84,10374.63 19459.71,10374.63 19170.41,10395.65 "/>
   <polygon class="fil4 str3" points="19170.41,10395.65 19459.71,10374.63 19459.71,10375.56 19170.41,10396.53 "/>
   <polygon class="fil5 str4" points="19170.41,10396.53 19459.71,10375.56 19931.75,10375.56 19618.85,10396.53 "/>
   <polygon class="fil6 str5" points="19618.85,10396.53 19931.75,10375.56 19934.65,10388.45 19937.46,10401.36 19940.18,10414.27 19942.81,10427.21 19945.35,10440.16 19947.8,10453.13 19950.16,10466.1 19952.44,10479.1 19954.62,10492.11 19956.7,10505.12 19958.71,10518.16 19960.61,10531.22 19962.43,10544.27 19964.15,10557.35 19965.78,10570.45 19967.33,10583.55 19968.78,10596.67 19970.13,10609.8 19971.4,10622.94 19972.57,10636.11 19973.65,10649.27 19974.63,10662.46 19975.52,10675.65 19976.33,10688.87 19977.03,10702.09 19977.65,10715.32 19978.16,10728.58 19978.59,10741.83 19978.92,10755.11 19979.15,10768.39 19979.29,10781.69 19979.34,10795 19664.06,10795 19664.02,10782.36 19663.88,10769.73 19663.65,10757.11 19663.34,10744.49 19662.94,10731.9 19662.45,10719.31 19661.87,10706.74 19661.2,10694.18 19660.44,10681.63 19659.58,10669.09 19658.65,10656.57 19657.62,10644.05 19656.51,10631.55 19655.31,10619.06 19654.03,10606.59 19652.65,10594.13 19651.18,10581.68 19649.63,10569.24 19648,10556.82 19646.27,10544.41 19644.45,10532.01 19642.55,10519.62 19640.57,10507.26 19638.5,10494.9 19636.34,10482.55 19634.1,10470.22 19631.77,10457.91 19629.35,10445.61 19626.86,10433.31 19624.27,10421.04 19621.6,10408.78 "/>
   <polygon class="fil7 str6" points="19664.06,10795 19979.34,10795 19971.49,10966.01 19948.22,11134.82 19909.88,11301.22 19856.88,11465.01 19789.59,11625.96 19708.4,11783.87 19613.69,11938.53 19505.83,12089.72 19385.22,12237.22 19252.23,12380.85 19107.25,12520.36 18950.65,12655.56 18782.84,12786.23 18604.18,12912.16 18415.05,13033.15 18215.86,13148.96 18006.95,13259.4 17788.74,13364.25 17561.6,13463.3 17325.9,13556.34 17082.04,13643.16 16830.41,13723.54 16571.36,13797.27 16305.29,13864.14 16032.59,13923.93 15753.64,13976.45 15468.81,14021.46 15178.49,14058.77 14883.07,14088.15 14582.93,14109.41 14278.44,14122.31 13970,14126.66 13955.19,13960.07 14248.2,13955.94 14537.46,13943.68 14822.6,13923.49 15103.26,13895.58 15379.05,13860.14 15649.64,13817.37 15914.64,13767.48 16173.71,13710.67 16426.47,13647.15 16672.58,13577.11 16911.62,13500.74 17143.3,13418.28 17367.21,13329.88 17582.99,13235.79 17790.29,13136.18 17988.76,13031.26 18177.99,12921.23 18357.66,12806.3 18527.38,12686.67 18686.8,12562.53 18835.57,12434.09 18973.31,12301.56 19099.64,12165.11 19214.23,12024.98 19316.69,11881.35 19406.67,11734.42 19483.8,11584.41 19547.72,11431.5 19598.07,11275.9 19634.49,11117.82 19656.61,10957.45 "/>
   <polygon class="fil8 str7" points="13955.19,13960.07 13970,14126.66 13661.55,14122.31 13357.07,14109.41 13056.92,14088.15 12761.5,14058.77 12471.19,14021.46 12186.36,13976.45 11907.41,13923.93 11634.71,13864.14 11368.65,13797.27 11109.6,13723.54 10857.95,13643.16 10614.09,13556.34 10378.4,13463.3 10151.25,13364.25 9933.04,13259.4 9724.14,13148.96 9524.94,13033.15 9335.83,12912.16 9157.16,12786.23 8989.35,12655.56 8832.76,12520.36 8687.77,12380.85 8554.79,12237.22 8434.17,12089.72 8326.32,11938.53 8231.61,11783.87 8150.41,11625.96 8083.12,11465.01 8030.12,11301.22 7991.78,11134.82 7968.51,10966.01 7960.66,10795 8246.32,10795 8253.78,10957.45 8275.89,11117.82 8312.31,11275.9 8362.66,11431.5 8426.58,11584.41 8503.72,11734.42 8593.7,11881.35 8696.16,12024.98 8810.74,12165.11 8937.08,12301.56 9074.81,12434.09 9223.57,12562.53 9382.99,12686.67 9552.73,12806.3 9732.39,12921.23 9921.63,13031.26 10120.08,13136.18 10327.39,13235.79 10543.18,13329.88 10767.08,13418.28 10998.74,13500.74 11237.81,13577.11 11483.91,13647.15 11736.67,13710.67 11995.73,13767.48 12260.74,13817.37 12531.32,13860.14 12807.12,13895.58 13087.77,13923.49 13372.91,13943.68 13662.16,13955.94 "/>
   <polygon class="fil9 str8" points="8246.32,10795 7960.66,10795 7968.51,10623.99 7991.78,10455.18 8030.12,10288.78 8083.12,10124.99 8150.41,9964.04 8231.61,9806.13 8326.32,9651.47 8434.17,9500.29 8554.79,9352.78 8687.77,9209.16 8832.76,9069.65 8989.35,8934.45 9157.16,8803.77 9335.83,8677.84 9524.94,8556.85 9724.14,8441.04 9933.04,8330.61 10151.25,8225.75 10378.4,8126.7 10614.09,8033.66 10857.95,7946.84 11109.6,7866.47 11368.65,7792.73 11634.71,7725.86 11907.41,7666.07 12186.36,7613.55 12471.19,7568.54 12761.5,7531.23 13056.92,7501.85 13357.07,7480.59 13661.55,7467.69 13970,7463.34 13955.19,7629.93 13662.16,7634.06 13372.91,7646.32 13087.77,7666.51 12807.12,7694.42 12531.32,7729.86 12260.74,7772.63 11995.73,7822.52 11736.67,7879.33 11483.91,7942.85 11237.81,8012.9 10998.74,8089.26 10767.08,8171.72 10543.18,8260.12 10327.39,8354.21 10120.08,8453.83 9921.63,8558.74 9732.39,8668.77 9552.73,8783.7 9382.99,8903.33 9223.57,9027.48 9074.81,9155.92 8937.08,9288.45 8810.74,9424.89 8696.16,9565.03 8593.7,9708.65 8503.72,9855.58 8426.58,10005.59 8362.66,10158.5 8312.31,10314.1 8275.89,10472.18 8253.78,10632.55 "/>
   <polygon class="fil10 str9" points="13955.19,7629.93 13970,7463.34 14178.38,7465.32 14385.02,7471.23 14589.8,7480.99 14792.6,7494.54 14993.3,7511.83 15191.79,7532.78 15387.95,7557.32 15581.66,7585.39 15772.82,7616.93 15961.29,7651.88 16146.95,7690.15 16329.7,7731.71 16509.43,7776.46 16685.99,7824.36 16859.3,7875.34 17029.21,7929.33 17195.63,7986.26 17358.43,8046.08 17517.49,8108.7 17672.7,8174.08 17823.93,8242.16 17971.08,8312.84 18114.03,8386.09 18252.65,8461.82 18386.83,8539.98 18516.45,8620.49 18641.41,8703.31 18761.57,8788.35 18876.82,8875.56 18987.06,8964.87 19092.13,9056.21 19191.96,9149.52 18916.05,9231.8 18821.21,9143.15 18721.39,9056.38 18616.67,8971.54 18507.17,8888.69 18393.03,8807.9 18274.32,8729.22 18151.17,8652.74 18023.7,8578.48 17892.01,8506.53 17756.21,8436.95 17616.42,8369.81 17472.75,8305.14 17325.3,8243.02 17174.2,8183.53 17019.53,8126.7 16861.44,8072.62 16700.02,8021.32 16535.37,7972.9 16367.64,7927.4 16196.9,7884.87 16023.28,7845.41 15846.91,7809.03 15667.86,7775.85 15486.27,7745.88 15302.24,7719.2 15115.89,7695.9 14927.32,7675.99 14736.65,7659.57 14543.99,7646.7 14349.45,7637.42 14153.15,7631.82 "/>
   <polygon class="fil11 str10" points="17779.21,11437.78 17995.29,11471.61 14226.84,11471.61 14199.18,11437.78 "/>
   <polygon class="fil12 str2" points="14199.18,10395.65 19170.41,10395.65 19170.41,10396.53 19618.85,10396.53 19621.6,10408.78 19624.27,10421.04 19626.86,10433.31 19629.35,10445.61 19631.77,10457.91 19634.1,10470.22 19636.34,10482.55 19638.5,10494.9 19640.57,10507.26 19642.55,10519.62 19644.45,10532.01 19646.27,10544.41 19648,10556.82 19649.63,10569.24 19651.18,10581.68 19652.65,10594.13 19654.03,10606.59 19655.31,10619.06 19656.51,10631.55 19657.62,10644.05 19658.65,10656.57 19659.58,10669.09 19660.44,10681.63 19661.2,10694.18 19661.87,10706.74 19662.45,10719.31 19662.94,10731.9 19663.34,10744.49 19663.65,10757.11 19663.88,10769.73 19664.02,10782.36 19664.06,10795 19656.61,10957.45 19634.49,11117.82 19598.07,11275.9 19547.72,11431.5 19483.8,11584.41 19406.67,11734.42 19316.69,11881.35 19214.23,12024.98 19099.64,12165.11 18973.31,12301.56 18835.57,12434.09 18686.8,12562.53 18527.38,12686.67 18357.66,12806.3 18177.99,12921.23 17988.76,13031.26 17790.29,13136.18 17582.99,13235.79 17367.21,13329.88 17143.3,13418.28 16911.62,13500.74 16672.58,13577.11 16426.47,13647.15 16173.71,13710.67 15914.64,13767.48 15649.64,13817.37 15379.05,13860.14 15103.26,13895.58 14822.6,13923.49 14537.46,13943.68 14248.2,13955.94 13955.19,13960.07 13662.16,13955.94 13372.91,13943.68 13087.77,13923.49 12807.12,13895.58 12531.32,13860.14 12260.74,13817.37 11995.73,13767.48 11736.67,13710.67 11483.91,13647.15 11237.81,13577.11 10998.74,13500.74 10767.08,13418.28 10543.18,13329.88 10327.39,13235.79 10120.08,13136.18 9921.63,13031.26 9732.39,12921.23 9552.73,12806.3 9382.99,12686.67 9223.57,12562.53 9074.81,12434.09 8937.08,12301.56 8810.74,12165.11 8696.16,12024.98 8593.7,11881.35 8503.72,11734.42 8426.58,11584.41 8362.66,11431.5 8312.31,11275.9 8275.89,11117.82 8253.78,10957.45 8246.32,10795 8253.78,10632.55 8275.89,10472.18 8312.31,10314.1 8362.66,10158.5 8426.58,10005.59 8503.72,9855.58 8593.7,9708.65 8696.16,9565.03 8810.74,9424.89 8937.08,9288.45 9074.81,9155.92 9223.57,9027.48 9382.99,8903.33 9552.73,8783.7 9732.39,8668.77 9921.63,8558.74 10120.08,8453.83 10327.39,8354.21 10543.18,8260.12 10767.08,8171.72 10998.74,8089.26 11237.81,8012.9 11483.91,7942.85 11736.67,7879.33 11995.73,7822.52 12260.74,7772.63 12531.32,7729.86 12807.12,7694.42 13087.77,7666.51 13372.91,7646.32 13662.16,7634.06 13955.19,7629.93 14153.15,7631.82 14349.45,7637.42 14543.99,7646.7 14736.65,7659.57 14927.32,7675.99 15115.89,7695.9 15302.24,7719.2 15486.27,7745.88 15667.86,7775.85 15846.91,7809.03 16023.28,7845.41 16196.9,7884.87 16367.64,7927.4 16535.37,7972.9 16700.02,8021.32 16861.44,8072.62 17019.53,8126.7 17174.2,8183.53 17325.3,8243.02 17472.75,8305.14 17616.42,8369.81 17756.21,8436.95 17892.01,8506.53 18023.7,8578.48 18151.17,8652.74 18274.32,8729.22 18393.03,8807.9 18507.17,8888.69 18616.67,8971.54 18721.39,9056.38 18821.21,9143.15 18916.05,9231.8 16782.56,9231.8 16713.87,9194.51 16643.58,9158.13 16571.73,9122.68 16498.36,9088.18 16423.51,9054.64 16347.18,9022.08 16269.44,8990.54 16190.29,8960.01 16109.78,8930.52 16027.94,8902.09 15944.81,8874.73 15860.39,8848.46 15774.75,8823.3 15687.91,8799.26 15599.89,8776.37 15510.73,8754.63 15420.47,8734.08 15329.12,8714.73 15236.73,8696.59 15143.33,8679.68 15048.96,8664.03 14953.62,8649.64 14857.37,8636.54 14760.24,8624.74 14662.26,8614.26 14563.46,8605.12 14463.86,8597.35 14363.52,8590.95 14262.44,8585.92 14160.68,8582.32 14058.25,8580.15 13955.2,8579.43 13750.09,8582.31 13547.6,8590.91 13348.01,8605.03 13151.54,8624.57 12958.48,8649.38 12769.08,8679.32 12583.57,8714.24 12402.23,8754 12225.3,8798.47 12053.02,8847.5 11885.68,8900.95 11723.51,8958.69 11566.78,9020.56 11415.72,9086.43 11270.62,9156.15 11131.7,9229.6 10999.23,9306.62 10873.47,9387.06 10754.66,9470.81 10643.06,9557.71 10538.92,9647.62 10442.52,9740.4 10354.08,9835.9 10273.87,9934 10202.15,10034.55 10139.16,10137.39 10085.16,10242.39 10040.42,10349.43 10005.17,10458.34 9979.68,10569.01 9964.19,10681.27 9958.98,10794.99 9964.19,10908.69 9979.68,11020.96 10005.17,11131.63 10040.42,11240.53 10085.16,11347.58 10139.16,11452.59 10202.15,11555.44 10273.87,11655.98 10354.08,11754.07 10442.52,11849.57 10538.92,11942.36 10643.06,12032.27 10754.66,12119.16 10873.47,12202.91 10999.23,12283.36 11131.7,12360.37 11270.62,12433.82 11415.72,12503.55 11566.78,12569.43 11723.51,12631.29 11885.68,12689.02 12053.02,12742.48 12225.3,12791.5 12402.23,12835.98 12583.57,12875.74 12769.08,12910.65 12958.48,12940.6 13151.54,12965.4 13348.01,12984.94 13547.6,12999.07 13750.09,13007.66 13955.2,13010.54 14122.95,13008.62 14288.97,13002.86 14453.13,12993.38 14615.29,12980.24 14775.3,12963.52 14933.04,12943.28 15088.35,12919.62 15241.11,12892.6 15391.17,12862.31 15538.38,12828.81 15682.63,12792.2 15823.76,12752.54 15961.65,12709.89 16096.14,12664.37 16227.1,12616.04 16354.39,12564.95 16477.88,12511.21 16597.42,12454.88 16712.89,12396.05 16824.13,12334.77 16931,12271.16 17033.38,12205.25 17131.12,12137.15 17224.08,12066.91 17312.13,11994.63 17395.13,11920.39 17472.93,11844.24 17545.4,11766.27 17612.41,11686.57 17673.79,11605.21 17729.44,11522.25 17779.21,11437.78 14199.18,11437.78 "/>
  </g>
 </g>
</svg>
